<?xml version="1.0" encoding="UTF-8"?>
<svg fill="#1d4ed8" height="180" width="160" version="1.1" id="Layer_1"
	xmlns="http://www.w3.org/2000/svg" xmlns:xlink="http://www.w3.org/1999/xlink"
	viewBox="0 0 340 340" xml:space="preserve">
<g id="XMLID_439_">
	<g>
		<path d="M307.134,160c-2.196-30.404-14.317-58.101-33.137-79.854l23.282-23.282l-14.143-14.143l-23.282,23.282
			c-21.753-18.82-49.45-30.941-79.854-33.137V0h-20v32.866c-30.404,2.196-58.101,14.317-79.854,33.137L56.863,42.721L42.721,56.863
			l23.282,23.282c-18.82,21.753-30.941,49.45-33.137,79.854H0v20h32.866c2.196,30.404,14.317,58.102,33.137,79.854l-23.282,23.282
			l14.143,14.143l23.282-23.282c21.753,18.82,49.45,30.941,79.854,33.137V340h20v-32.866c30.404-2.196,58.101-14.317,79.854-33.137
			l23.282,23.282l14.143-14.143l-23.282-23.282c18.82-21.753,30.941-49.45,33.137-79.854H340v-20H307.134z M180,52.93
			c24.897,2.108,47.605,12.012,65.67,27.257l-46.31,46.311c-5.747-3.891-12.306-6.664-19.36-8.031V52.93z M160,52.93v65.537
			c-7.054,1.366-13.613,4.14-19.36,8.031l-46.31-46.31C112.396,64.942,135.103,55.038,160,52.93z M80.187,94.33l46.31,46.31
			c-3.891,5.747-6.664,12.305-8.031,19.36H52.93C55.038,135.103,64.942,112.396,80.187,94.33z M52.93,180h65.537
			c1.366,7.054,4.14,13.613,8.031,19.36l-46.31,46.31C64.942,227.604,55.038,204.897,52.93,180z M160,287.071
			c-24.897-2.11-47.604-12.013-65.67-27.258l46.31-46.31c5.747,3.891,12.305,6.664,19.36,8.031V287.071z M170,202.5
			c-17.92,0-32.5-14.58-32.5-32.5s14.58-32.5,32.5-32.5c17.921,0,32.5,14.58,32.5,32.5S187.921,202.5,170,202.5z M180,287.07
			v-65.537c7.054-1.367,13.613-4.14,19.36-8.031l46.311,46.31C227.605,275.058,204.897,284.961,180,287.07z M259.813,245.67
			l-46.311-46.31c3.891-5.747,6.664-12.306,8.031-19.36h65.537C284.962,204.897,275.058,227.605,259.813,245.67z M221.533,160
			c-1.366-7.054-4.14-13.613-8.031-19.36l46.31-46.31c15.246,18.065,25.15,40.773,27.258,65.67H221.533z"/>
	</g>
</g>
</svg>